<?xml version="1.0" standalone="no"?>
<!DOCTYPE svg PUBLIC "-//W3C//DTD SVG 20010904//EN"
 "http://www.w3.org/TR/2001/REC-SVG-20010904/DTD/svg10.dtd">
<svg version="1.0" xmlns="http://www.w3.org/2000/svg"
 width="2245.000000pt" height="2245.000000pt" viewBox="0 0 2245.000000 2245.000000"
 preserveAspectRatio="xMidYMid meet">
<metadata>
Created by potrace 1.14, written by Peter Selinger 2001-2017
</metadata>
<g transform="translate(0.000000,2245.000000) scale(0.100000,-0.100000)"
fill="#000000" stroke="none">
<path d="M8698 17656 c-1 -2 -32 -6 -68 -10 -196 -18 -452 -124 -715 -295 -38
-25 -71 -49 -73 -53 -2 -5 -8 -8 -13 -8 -21 0 -309 -225 -429 -335 -128 -117
-395 -388 -484 -493 -491 -573 -880 -1356 -971 -1952 -2 -14 -6 -41 -9 -60
-20 -118 -24 -199 -21 -395 2 -121 6 -231 8 -245 39 -241 111 -425 231 -595
129 -180 383 -367 554 -407 29 -7 52 -17 52 -23 0 -15 -69 -125 -114 -180 -64
-80 -182 -210 -301 -331 -90 -93 -122 -118 -175 -142 -64 -29 -169 -57 -252
-67 -24 -3 -54 -7 -68 -10 -14 -2 -59 -6 -100 -10 -41 -3 -91 -8 -110 -10 -19
-2 -73 -7 -120 -10 -47 -4 -101 -8 -120 -10 -19 -2 -66 -7 -105 -10 -38 -3
-86 -8 -105 -10 -19 -3 -55 -7 -80 -10 -25 -3 -63 -8 -85 -12 -22 -4 -43 -6
-47 -5 -4 1 -42 -5 -85 -13 -43 -8 -94 -17 -113 -20 -19 -3 -55 -11 -80 -16
-25 -6 -53 -12 -64 -14 -278 -57 -668 -208 -861 -333 -83 -54 -211 -174 -271
-255 -41 -55 -97 -181 -109 -243 -2 -16 -7 -40 -11 -54 -3 -14 -8 -73 -11
-132 l-6 -107 -1591 0 c-875 0 -1619 0 -1653 0 l-62 -1 4 -30 c3 -28 2 -30
-31 -30 l-35 0 3 -57 3 -58 1685 -1 c928 0 1691 -3 1696 -7 6 -3 27 -39 47
-79 65 -131 164 -215 342 -288 38 -16 120 -39 190 -54 145 -31 233 -39 435
-40 324 -1 469 24 965 169 269 78 352 94 505 100 197 7 324 -31 475 -141 100
-72 233 -210 337 -349 4 -5 18 -23 31 -40 13 -16 59 -81 101 -143 74 -106 76
-112 50 -105 -145 39 -395 -79 -600 -283 -87 -86 -184 -208 -184 -230 0 -4 -6
-15 -13 -23 -31 -36 -105 -262 -122 -371 -4 -25 -9 -54 -11 -65 -21 -113 -21
-417 0 -532 2 -10 7 -38 11 -63 64 -412 341 -1007 717 -1542 46 -65 211 -277
245 -314 15 -17 48 -53 72 -80 159 -180 434 -434 595 -549 16 -11 40 -29 55
-41 25 -20 284 -196 326 -221 282 -170 465 -265 660 -343 204 -81 384 -106
476 -66 37 16 145 120 167 161 35 67 18 200 -42 329 -28 62 -184 312 -219 351
-15 17 -149 215 -207 305 -198 310 -430 787 -624 1288 -29 75 -57 146 -61 157
-48 122 -152 417 -228 647 -63 193 -64 197 -38 180 54 -34 98 -68 153 -120
110 -104 415 -332 444 -332 4 0 15 -6 23 -14 22 -20 239 -127 341 -169 117
-48 305 -115 495 -177 88 -29 165 -56 170 -60 17 -13 403 -160 555 -212 262
-89 553 -167 725 -193 215 -32 314 -40 520 -39 163 0 318 8 385 19 14 2 50 7
80 10 50 6 261 38 320 50 14 3 70 14 125 24 55 11 111 22 125 25 21 4 259 59
313 72 9 2 25 6 35 8 151 34 638 187 827 259 211 81 250 98 470 203 587 280
1123 741 1660 1428 17 22 35 44 40 50 6 6 57 74 115 151 58 77 108 144 113
150 8 11 89 123 125 174 13 18 37 51 53 74 16 23 95 137 176 252 l148 210 45
0 c25 0 63 -3 85 -7 22 -3 74 -9 115 -13 41 -4 82 -8 90 -10 8 -1 44 -6 80
-10 36 -4 75 -9 87 -10 12 -2 34 -6 50 -9 34 -8 59 -13 138 -27 32 -6 111 -26
173 -45 191 -58 307 -119 396 -207 40 -38 47 -50 35 -58 -8 -5 -115 -6 -249
-3 -551 15 -658 11 -838 -26 -195 -39 -320 -99 -432 -206 -95 -91 -120 -141
-101 -204 34 -114 220 -185 591 -225 263 -28 741 -28 1000 1 25 3 54 7 65 9
11 2 43 7 70 10 144 18 417 101 528 159 157 84 307 221 354 322 71 154 3 308
-206 468 -31 23 -135 96 -231 160 -96 65 -195 134 -220 154 -41 34 -239 200
-250 212 -43 43 -203 128 -310 164 -110 36 -233 54 -352 49 -218 -7 -364 -80
-565 -282 -64 -64 -122 -126 -131 -138 -17 -27 -29 -28 -107 -8 -150 40 -334
160 -383 252 -16 29 -8 119 22 248 15 66 30 131 32 145 3 14 7 32 9 40 3 8 7
31 10 50 2 19 8 53 11 75 13 87 12 380 -2 460 -47 272 -175 510 -384 713 -72
71 -172 140 -238 166 -146 56 -290 14 -507 -149 -91 -68 -101 -73 -113 -58
-11 15 -6 21 39 48 260 152 395 291 403 412 9 138 -85 326 -265 533 -177 203
-455 423 -607 480 -161 61 -320 -17 -603 -295 -59 -58 -110 -105 -113 -105 -7
0 -91 71 -241 204 -174 154 -258 232 -434 404 l-106 102 80 -36 c44 -19 89
-39 100 -44 11 -5 43 -18 70 -30 28 -12 59 -25 70 -30 123 -55 399 -149 512
-174 82 -19 190 -18 228 2 16 8 53 39 82 69 44 45 53 60 53 89 0 73 -51 136
-183 226 -73 49 -315 170 -467 233 -63 26 -124 51 -135 56 -103 45 -417 148
-530 174 -145 34 -290 43 -376 24 l-41 -10 -77 75 c-142 139 -265 233 -432
331 l-94 55 135 -5 c129 -5 211 -10 310 -20 112 -12 151 -17 235 -31 132 -21
146 -23 195 -34 25 -6 54 -12 65 -14 55 -11 250 -61 353 -92 64 -19 124 -37
132 -39 47 -11 389 -138 495 -185 22 -9 60 -26 85 -36 87 -37 346 -167 450
-227 436 -250 686 -461 1361 -1153 75 -76 168 -169 208 -207 61 -58 70 -70 61
-87 -15 -29 -12 -69 10 -128 35 -93 76 -153 390 -572 298 -398 348 -468 445
-625 151 -243 233 -315 432 -380 81 -27 225 -60 303 -70 25 -3 56 -8 70 -10
46 -8 163 -21 265 -30 192 -16 334 -26 440 -30 44 -2 136 -6 205 -9 226 -11
628 -21 1205 -31 171 -4 894 -8 1608 -10 l1297 -3 0 34 c0 19 5 34 10 34 6 0
10 25 10 55 l0 55 -557 0 c-772 1 -2069 9 -2418 14 -643 11 -1234 31 -1489 50
-33 3 -97 8 -141 11 -44 3 -98 8 -120 10 -22 3 -67 7 -100 10 -33 3 -71 8 -85
10 -14 2 -61 9 -105 15 -175 25 -335 73 -425 126 -95 55 -139 108 -271 319
-64 103 -207 302 -473 654 -213 284 -262 355 -223 323 22 -18 157 -83 214
-103 47 -16 137 -39 210 -55 90 -18 350 -23 623 -10 406 19 559 9 646 -45 77
-47 45 -118 -107 -245 -14 -11 -117 -90 -230 -174 -218 -164 -397 -329 -429
-395 -22 -46 -25 -83 -9 -118 34 -74 174 -84 349 -25 463 157 1167 697 1313
1008 40 84 44 191 9 257 -31 60 -77 109 -143 153 -161 110 -344 158 -674 178
-273 16 -938 4 -1335 -24 -181 -12 -207 -14 -240 -19 -19 -2 -64 -7 -100 -10
-36 -3 -72 -8 -80 -10 -8 -2 -29 -7 -47 -10 -18 -3 -43 -9 -57 -14 -22 -9 -33
-2 -112 72 -48 45 -144 140 -213 211 -425 435 -567 573 -760 734 -336 281
-693 496 -1161 700 -193 84 -689 254 -810 277 -8 2 -35 8 -60 15 -25 7 -52 13
-60 15 -8 2 -60 12 -115 23 -148 31 -321 60 -400 68 -38 3 -78 8 -88 10 -39 7
-288 18 -417 18 -148 0 -346 -9 -455 -20 -70 -8 -89 -8 -285 -3 -89 2 -211 -6
-270 -16 -8 -1 -35 -6 -60 -10 -126 -19 -366 -96 -515 -165 -39 -17 -128 -54
-200 -81 -71 -27 -137 -52 -145 -56 -8 -3 -17 -7 -20 -8 -3 -1 -16 -7 -30 -12
-94 -41 -411 -156 -610 -223 -259 -86 -590 -241 -860 -403 -547 -327 -978
-708 -1230 -1084 -41 -62 -78 -112 -82 -113 -5 0 -8 21 -8 48 0 64 -39 273
-83 442 -8 30 -18 73 -22 95 -5 22 -9 45 -11 50 -12 50 -49 255 -58 324 -27
206 -28 463 0 616 14 80 70 277 93 330 5 11 26 61 47 110 169 398 629 1110
899 1394 99 104 232 201 274 201 25 0 -36 -118 -163 -320 -336 -530 -467 -762
-602 -1061 -151 -337 -279 -722 -299 -904 -4 -33 -9 -63 -12 -67 -6 -11 -5
-198 1 -228 3 -14 9 -41 12 -60 3 -19 22 -67 41 -107 80 -164 237 -236 380
-174 59 26 193 158 237 232 40 70 80 187 121 359 36 150 132 535 138 555 2 6
11 37 21 70 10 33 64 184 121 335 94 249 147 408 160 479 49 266 116 429 332
801 316 545 369 653 388 786 18 136 -64 225 -222 240 -32 3 -63 7 -70 9 -6 2
-13 2 -15 1z m60 -197 c133 -43 96 -160 -228 -719 -139 -240 -146 -251 -193
-340 -22 -41 -45 -84 -52 -95 -13 -21 -86 -183 -90 -200 -1 -5 -5 -17 -8 -25
-12 -29 -47 -153 -52 -182 -19 -104 -70 -297 -99 -368 -8 -19 -31 -80 -51
-135 -20 -55 -41 -109 -46 -120 -57 -124 -195 -581 -224 -747 -4 -21 -25 -114
-51 -218 -46 -192 -111 -341 -153 -355 -72 -22 -143 -3 -194 54 -101 112 -117
323 -46 613 44 179 138 447 241 682 78 180 264 529 389 731 10 17 28 46 39 65
11 19 33 54 48 77 108 168 254 407 277 453 67 133 62 222 -13 252 -36 14 -120
-3 -176 -36 -183 -107 -429 -365 -672 -706 -354 -496 -659 -1062 -730 -1355
-44 -185 -57 -286 -57 -470 -1 -89 10 -263 18 -306 3 -12 7 -45 10 -73 3 -28
10 -69 15 -91 5 -22 11 -56 14 -75 8 -50 16 -88 27 -140 6 -25 12 -52 14 -60
2 -8 15 -67 30 -130 60 -254 84 -419 65 -450 -12 -19 -115 26 -217 94 -94 62
-108 73 -189 156 -105 108 -148 175 -219 335 -38 84 -79 258 -92 384 -12 122
-7 365 11 491 21 145 40 237 72 355 163 595 511 1225 939 1705 83 93 293 298
380 370 50 41 92 77 95 80 12 14 242 180 305 222 251 163 494 267 670 285 28
3 51 7 53 8 6 5 109 -6 140 -16z m592 -2868 c-8 -5 -55 -23 -105 -39 -390
-132 -651 -256 -875 -417 -304 -218 -692 -627 -863 -910 -53 -87 -105 -195
-134 -274 -17 -49 -19 -51 -55 -51 -123 0 -338 -150 -564 -391 -136 -147 -284
-443 -354 -709 -13 -47 -27 -90 -32 -96 -7 -9 -72 -25 -198 -49 -24 -4 -142
-18 -180 -20 -19 -2 -73 -6 -120 -9 -47 -3 -139 -8 -205 -11 -431 -20 -546
-53 -699 -196 -164 -155 -188 -296 -97 -561 27 -81 35 -115 32 -145 -3 -33
-228 -75 -396 -75 -113 0 -131 2 -271 21 -76 11 -93 14 -147 26 -12 3 -37 8
-56 11 -18 3 -43 8 -55 10 -18 3 -83 15 -161 30 -19 3 -35 5 -140 19 -27 4
-59 9 -70 10 -11 2 -27 4 -36 4 -17 1 -23 46 -21 156 5 185 62 350 150 432 82
77 317 194 547 271 132 45 255 82 295 88 14 3 32 7 40 10 18 6 201 43 250 50
19 2 44 6 55 9 11 2 43 7 70 10 28 4 61 8 75 11 14 2 57 6 95 9 39 3 81 8 95
10 23 3 69 8 225 20 337 28 427 39 550 67 212 48 277 100 717 583 56 62 158
194 158 205 0 5 6 15 13 22 7 7 25 40 41 73 18 37 55 87 97 130 37 39 118 144
179 235 134 197 200 279 312 387 122 119 309 269 483 389 16 11 54 37 82 57
29 20 57 37 63 37 5 0 10 5 10 10 0 6 7 10 15 10 8 0 15 3 15 8 0 4 10 12 23
18 12 6 63 36 114 67 123 76 373 205 505 261 108 46 280 113 308 121 8 2 58
20 110 39 93 34 144 46 110 27z m3249 -121 c325 -72 974 -344 1151 -483 l25
-19 -43 6 c-147 20 -647 222 -1162 470 -106 51 -101 55 29 26z m-3650 -252
c-203 -227 -337 -423 -496 -728 -107 -204 -416 -806 -580 -1127 -48 -94 -90
-170 -94 -168 -3 3 -14 26 -24 52 -19 53 -153 324 -206 418 -19 33 -42 76 -53
95 l-18 36 52 139 c106 285 223 459 510 758 187 194 399 351 635 467 107 54
341 156 363 160 1 0 -39 -46 -89 -102z m5327 -623 c202 -113 479 -369 611
-565 111 -166 144 -292 94 -360 -18 -25 -123 -96 -216 -146 -27 -14 -62 -35
-77 -45 -27 -19 -58 -25 -58 -11 0 13 -117 140 -251 274 -75 74 -234 212 -386
332 -142 114 -269 215 -283 226 l-24 20 64 66 c82 83 206 183 270 218 95 52
151 50 256 -9z m3544 -538 c14 -3 52 -8 85 -12 235 -24 405 -87 511 -190 43
-43 53 -60 59 -97 15 -96 -25 -177 -154 -311 -210 -219 -693 -533 -967 -628
-100 -35 -224 -50 -224 -29 0 21 80 91 249 217 209 156 323 248 401 325 156
151 198 235 165 329 -19 52 -48 81 -113 113 -115 57 -264 69 -632 50 -290 -15
-551 -10 -680 12 -59 10 -191 54 -260 87 -62 30 -159 86 -149 88 8 1 83 8 139
13 30 3 98 8 150 11 52 4 120 8 150 10 30 2 138 7 240 11 102 3 186 8 188 9 6
5 817 -3 842 -8z m-10551 -346 c16 -11 11 -28 -45 -149 -140 -299 -322 -552
-489 -676 -77 -58 -164 -111 -170 -104 -2 2 3 28 11 58 8 30 16 62 19 70 29
121 174 422 248 515 80 102 211 212 322 269 52 27 81 31 104 17z m220 -366
c43 -88 93 -197 110 -243 l31 -82 -23 -43 c-37 -67 -73 -164 -100 -273 -17
-68 -49 -149 -95 -245 -39 -79 -82 -173 -97 -209 -49 -114 -120 -333 -140
-430 -2 -8 -8 -36 -14 -62 -6 -26 -13 -68 -16 -95 -3 -26 -8 -55 -10 -63 -6
-20 -16 -149 -20 -238 -1 -40 -4 -74 -6 -76 -9 -9 -151 96 -222 163 -134 128
-226 272 -285 446 -34 100 -69 258 -77 350 -8 78 -8 332 -1 343 3 5 40 29 83
55 110 65 221 157 343 283 157 163 289 350 385 542 40 80 40 81 57 59 9 -12
53 -94 97 -182z m7760 21 c59 -22 147 -84 223 -160 234 -235 351 -515 350
-841 0 -151 -19 -284 -72 -518 -38 -169 -44 -227 -28 -280 11 -40 46 -98 85
-142 61 -69 237 -170 364 -209 l68 -21 -126 -180 c-70 -99 -147 -210 -172
-246 -270 -387 -614 -830 -810 -1043 -68 -73 -260 -266 -306 -306 -123 -108
-196 -165 -340 -269 l-60 -43 85 84 c153 153 224 231 326 358 319 397 541 833
629 1235 17 79 19 81 99 165 152 158 237 304 237 406 0 84 -40 126 -114 119
-36 -3 -108 -47 -139 -84 -26 -31 -33 -26 -32 20 0 48 -16 200 -32 284 -39
221 -88 384 -186 630 -76 189 -229 505 -299 615 -9 14 -29 47 -45 74 -16 27
-36 59 -44 71 -8 13 -30 46 -47 74 l-33 51 66 48 c150 110 254 142 353 108z
m-8907 -992 c-3 -267 45 -508 142 -717 35 -75 130 -224 172 -267 127 -132 189
-183 317 -262 45 -28 83 -51 84 -52 1 -1 5 -25 8 -54 6 -57 21 -99 65 -183 16
-31 32 -74 36 -95 3 -21 8 -42 10 -45 2 -3 6 -21 9 -39 5 -29 28 -117 51 -193
3 -12 -22 23 -56 78 -483 776 -771 1030 -1180 1040 -176 4 -309 -21 -687 -131
-418 -121 -531 -139 -863 -138 -294 1 -468 33 -647 121 -73 36 -168 117 -157
134 3 5 9 7 14 4 5 -3 44 -12 87 -20 123 -22 178 -32 258 -49 11 -2 40 -7 65
-11 25 -4 52 -9 60 -10 8 -2 42 -6 75 -10 33 -4 71 -9 85 -11 40 -6 251 -6
300 1 129 16 225 42 301 80 42 21 155 130 176 169 25 47 17 118 -29 255 -71
214 -55 334 53 388 57 28 136 49 220 58 35 3 78 8 96 10 18 2 90 7 160 10 384
18 548 35 698 73 39 10 72 16 74 15 2 -2 4 -69 3 -149z m10863 -748 c200 -38
329 -108 542 -293 101 -88 230 -184 353 -263 47 -30 90 -58 95 -62 6 -4 46
-34 90 -66 290 -213 297 -365 20 -496 -121 -58 -312 -119 -412 -132 -20 -2
-38 -6 -42 -8 -3 -2 -35 -7 -71 -11 -36 -4 -72 -8 -81 -10 -8 -2 -53 -6 -100
-10 -404 -35 -936 -8 -1194 60 -79 21 -138 46 -164 71 -21 20 -23 25 -10 40
28 34 175 91 304 119 143 31 231 33 865 24 207 -3 257 1 316 26 42 17 142 118
150 152 36 143 -167 323 -481 426 -96 32 -246 68 -345 83 -19 2 -57 9 -85 14
-50 9 -214 30 -270 35 -56 5 -170 17 -172 19 -7 6 112 130 162 168 77 58 105
72 204 101 64 18 102 23 183 22 57 -1 121 -5 143 -9z m-1586 -374 c-15 -40
-67 -134 -89 -162 l-20 -25 2 49 c2 49 30 104 77 154 28 28 44 20 30 -16z
m-8557 -902 c87 -142 141 -233 189 -317 11 -18 27 -48 38 -65 10 -18 45 -80
78 -138 l60 -105 -53 -7 c-78 -10 -140 -47 -217 -126 -112 -116 -146 -221
-142 -427 8 -332 170 -743 544 -1375 47 -80 92 -157 101 -172 8 -15 43 -76 77
-135 34 -60 71 -132 83 -162 l21 -53 -37 7 c-211 39 -447 302 -668 742 -66
131 -136 281 -136 289 0 3 -8 24 -19 47 -132 297 -255 720 -278 963 -12 129
-5 356 12 384 2 3 6 21 9 41 9 62 55 196 132 389 74 187 101 284 99 353 -1 20
2 34 5 30 4 -5 50 -78 102 -163z m-296 98 c11 -8 11 -77 0 -123 -9 -37 -43
-129 -99 -265 -132 -324 -168 -523 -143 -801 8 -86 12 -117 42 -269 22 -110
129 -465 167 -553 8 -17 29 -70 47 -117 18 -47 36 -89 41 -94 5 -6 9 -16 9
-22 0 -22 111 -253 208 -434 205 -382 448 -623 675 -670 104 -21 151 -7 229
69 121 117 104 192 -132 591 -316 535 -458 819 -552 1105 -81 250 -88 547 -14
640 23 29 28 30 105 32 58 1 95 -4 133 -18 29 -10 54 -19 55 -19 10 0 76 -178
149 -401 135 -416 320 -917 433 -1172 10 -23 49 -112 87 -197 79 -180 235
-491 318 -635 55 -94 199 -314 392 -595 108 -157 172 -289 181 -369 l6 -60
-37 -6 c-181 -34 -765 240 -1246 584 -296 212 -607 502 -826 771 -410 505
-765 1186 -858 1650 -23 115 -25 129 -33 210 -13 138 -9 290 13 460 22 174
121 407 216 510 105 114 375 236 434 198z"/>
</g>
</svg>
